<svg width="100" height="100" viewBox="0 0 30 25" fill="none" xmlns="http://www.w3.org/2000/svg">
<g clip-path="url(#clip0_6_342)">
<path d="M1.64917 1.66675C4.59053 1.66675 7.41143 2.83725 9.49129 4.92075C11.5711 7.00425 12.7396 9.83008 12.7396 12.7766V23.3334C9.79824 23.3334 6.97734 22.1629 4.89748 20.0794C2.81762 17.9959 1.64917 15.1701 1.64917 12.2236V1.66675Z" fill="#780096"/>
<path d="M13.708 14.3508V8.74489C13.708 7.81506 13.8909 6.89434 14.2462 6.03533C14.6015 5.17633 15.1223 4.39587 15.7789 3.73855C16.4354 3.08124 17.2147 2.55994 18.0724 2.20446C18.9301 1.84897 19.8493 1.66625 20.7775 1.66675V7.27453C20.7775 8.20427 20.5946 9.1249 20.2393 9.9838C19.884 10.8427 19.3631 11.623 18.7066 12.2802C18.05 12.9374 17.2707 13.4585 16.413 13.8138C15.5553 14.169 14.6361 14.3515 13.708 14.3508Z" fill="#780096"/>
<path d="M13.708 15.4456H21.8101C23.8969 15.4456 25.8983 16.276 27.3739 17.7542C28.8495 19.2324 29.6785 21.2373 29.6785 23.3278H21.5764C19.4896 23.3278 17.4882 22.4973 16.0126 21.0191C14.537 19.5409 13.708 17.5361 13.708 15.4456Z" fill="#780096"/>
</g>
</svg>
